<svg id="Layer_1" data-name="Layer 1" xmlns="http://www.w3.org/2000/svg" viewBox="0 0 15.1 19"><defs><style>.cls-1{fill:#fff;}.cls-2{fill:#29b4ad;}</style></defs><title>hand-small</title><g id="Page-1"><g id="Cursors-Copy-5"><g id="Group-2-Copy"><rect id="Rectangle-Copy-43" class="cls-1" x="4.65" width="1.65" height="1"/><g id="Group"><path id="Combined-Shape" class="cls-2" d="M13.2,7.8h.9v6h-.9v2.4h-.9V18H5.4V16.2H4.5V14.55H3.6V12.9H2.7V11.25H1.8v-.9H.9V8.55H2.7v.9h1v.75H4.5V.9H6.3V8.7h.9V5.1H8.85V8.7h.9V6H11.4V9.6h.9V6.9h.9Z"/></g><rect id="Rectangle-Copy-44" class="cls-1" x="7.2" y="4.2" width="1.65" height="1"/><rect id="Rectangle-Copy-45" class="cls-1" x="8.85" y="5.1" width="2.55" height="1"/><rect id="Rectangle-Copy-46" class="cls-1" x="11.4" y="6" width="1.8" height="1"/><rect id="Rectangle-Copy-47" class="cls-1" x="0.15" y="7.65" width="2.55" height="1"/><rect id="Rectangle-Copy-48" class="cls-1" x="13.2" y="6.9" width="1" height="1"/><rect id="Rectangle-Copy-65" class="cls-1" x="4.5" y="18" width="8.7" height="1"/><rect id="Rectangle-Copy-66" class="cls-1" x="2.7" y="8.55" width="1.05" height="1"/><rect id="Rectangle-Copy-67" class="cls-1" x="0.9" y="10.35" width="1" height="1"/><rect id="Rectangle-Copy-68" class="cls-1" x="1.8" y="11.25" width="1" height="1.65"/><rect id="Rectangle-Copy-69" class="cls-1" x="2.7" y="12.9" width="1" height="1.65"/><rect id="Rectangle-Copy-70" class="cls-1" x="3.6" y="14.55" width="1" height="1.65"/><rect id="Rectangle-Copy-71" class="cls-1" x="13.2" y="13.8" width="1" height="2.4"/><rect id="Rectangle-Copy-72" class="cls-1" x="4.5" y="16.2" width="1" height="2.7"/><rect id="Rectangle-Copy-73" class="cls-1" x="12.3" y="16.2" width="1" height="2.7"/><rect id="Rectangle-Copy-74" class="cls-1" x="14.1" y="7.8" width="1" height="6"/><rect id="Rectangle-Copy-82" class="cls-1" x="6.3" y="0.9" width="1" height="7.8"/><rect id="Rectangle-Copy-83" class="cls-1" x="8.85" y="5.1" width="1" height="3.6"/><rect id="Rectangle-Copy-84" class="cls-1" x="11.4" y="6" width="1" height="3.6"/><rect id="Rectangle-Copy-85" class="cls-1" y="7.65" width="1" height="2.7"/><rect id="Rectangle-Copy-86" class="cls-1" x="3.75" y="0.9" width="1" height="9.3"/></g></g></g></svg>