<svg id="Layer_1" data-name="Layer 1" xmlns="http://www.w3.org/2000/svg" viewBox="0 0 30.85 38.82"><defs><style>.cls-1{fill:#fff;}.cls-2{fill:#29b4ad;}</style></defs><title>hand-big</title><g id="Page-1"><g id="Cursors-Copy-5"><g id="Group-2-Copy"><rect id="Rectangle-Copy-43" class="cls-1" x="9.5" width="3.37" height="2.04"/><g id="Group"><path id="Combined-Shape" class="cls-2" d="M27,15.94h1.84V28.19H27V33.1H25.13v3.68H11V33.1H9.19V29.73H7.36V26.36H5.52V23H3.68V21.15H1.84V17.47H5.52v1.84H7.66v1.53H9.19v-19h3.68V17.77h1.84V10.42h3.37v7.35h1.84V12.26h3.37v7.35h1.84V14.1H27Z"/></g><rect id="Rectangle-Copy-44" class="cls-1" x="14.71" y="8.58" width="3.37" height="2.04"/><rect id="Rectangle-Copy-45" class="cls-1" x="18.08" y="10.42" width="5.21" height="2.04"/><rect id="Rectangle-Copy-46" class="cls-1" x="23.29" y="12.26" width="3.68" height="2.04"/><rect id="Rectangle-Copy-47" class="cls-1" x="0.31" y="15.63" width="5.21" height="2.04"/><rect id="Rectangle-Copy-48" class="cls-1" x="26.97" y="14.1" width="2.04" height="2.04"/><rect id="Rectangle-Copy-65" class="cls-1" x="9.19" y="36.78" width="17.77" height="2.04"/><rect id="Rectangle-Copy-66" class="cls-1" x="5.52" y="17.47" width="2.15" height="2.04"/><rect id="Rectangle-Copy-67" class="cls-1" x="1.84" y="21.15" width="2.04" height="2.04"/><rect id="Rectangle-Copy-68" class="cls-1" x="3.68" y="22.98" width="2.04" height="3.37"/><rect id="Rectangle-Copy-69" class="cls-1" x="5.52" y="26.36" width="2.04" height="3.37"/><rect id="Rectangle-Copy-70" class="cls-1" x="7.36" y="29.73" width="2.04" height="3.37"/><rect id="Rectangle-Copy-71" class="cls-1" x="26.97" y="28.19" width="2.04" height="4.9"/><rect id="Rectangle-Copy-72" class="cls-1" x="9.19" y="33.1" width="2.04" height="5.52"/><rect id="Rectangle-Copy-73" class="cls-1" x="25.13" y="33.1" width="2.04" height="5.52"/><rect id="Rectangle-Copy-74" class="cls-1" x="28.81" y="15.94" width="2.04" height="12.26"/><rect id="Rectangle-Copy-82" class="cls-1" x="12.87" y="1.84" width="2.04" height="15.94"/><rect id="Rectangle-Copy-83" class="cls-1" x="18.08" y="10.42" width="2.04" height="7.36"/><rect id="Rectangle-Copy-84" class="cls-1" x="23.29" y="12.26" width="2.04" height="7.36"/><rect id="Rectangle-Copy-85" class="cls-1" y="15.63" width="2.04" height="5.52"/><rect id="Rectangle-Copy-86" class="cls-1" x="7.66" y="1.84" width="2.04" height="19"/></g></g></g></svg>